<?xml version="1.0" encoding="UTF-8" standalone="no"?>
<svg xmlns:dc="http://purl.org/dc/elements/1.1/" xmlns:cc="http://creativecommons.org/ns#" xmlns:rdf="http://www.w3.org/1999/02/22-rdf-syntax-ns#" xmlns:svg="http://www.w3.org/2000/svg" xmlns="http://www.w3.org/2000/svg" id="svg1267" version="1.1" viewBox="0 0 33.866665 8.4666661" height="8.4666662mm" width="33.866665mm">
  <defs id="defs1261" />
  <metadata id="metadata1264">
    <rdf:RDF>
      <cc:Work rdf:about="">
        <dc:format>image/svg+xml</dc:format>
        <dc:type rdf:resource="http://purl.org/dc/dcmitype/StillImage" />
        <dc:title></dc:title>
      </cc:Work>
    </rdf:RDF>
  </metadata>
  <g transform="translate(-15.573062,-15.309984)" id="layer1">
    <path style="fill:#4d4d4d;fill-opacity:1;stroke:none;stroke-width:0.00453362" d="m 20.599824,17.035803 c -0.566702,0.204014 -0.924857,0.729914 -0.884055,1.30568 l 0.0136,0.222148 -0.226681,-0.02716 c -0.825118,-0.104282 -1.545962,-0.457906 -2.158,-1.051805 L 17.04547,17.18998 16.9684,17.407589 c -0.163212,0.4851 -0.05893,0.9974 0.281083,1.341958 0.181344,0.190409 0.140542,0.217608 -0.172277,0.104271 -0.108806,-0.03628 -0.204013,-0.06348 -0.21308,-0.04986 -0.03173,0.03175 0.07707,0.444289 0.16321,0.607504 0.117874,0.226681 0.358156,0.448823 0.621105,0.580299 l 0.222148,0.104271 -0.26295,0.0046 c -0.253883,0 -0.26295,0.0046 -0.235748,0.09974 0.09067,0.294686 0.448828,0.607505 0.847786,0.743509 l 0.281084,0.09522 -0.244815,0.14507 c -0.36269,0.208548 -0.788849,0.326419 -1.215009,0.335485 -0.204013,0.0046 -0.371757,0.02264 -0.371757,0.03628 0,0.04527 0.553102,0.299219 0.874988,0.398957 0.965661,0.294691 2.112665,0.167748 2.974051,-0.335485 0.612039,-0.358158 1.224076,-1.069933 1.509694,-1.759043 0.154143,-0.367224 0.308286,-1.0382 0.308286,-1.360085 0,-0.208548 0.01361,-0.235742 0.267484,-0.485101 0.149609,-0.14507 0.290151,-0.303746 0.317352,-0.349085 0.04534,-0.08614 0.0408,-0.08614 -0.190411,-0.0091 -0.385358,0.136015 -0.439762,0.117876 -0.249349,-0.08614 0.140541,-0.145076 0.308285,-0.408023 0.308285,-0.485095 0,-0.01364 -0.068,0.0091 -0.145075,0.04986 -0.0816,0.04533 -0.26295,0.113344 -0.398958,0.154138 l -0.244816,0.07708 -0.222147,-0.14961 c -0.122407,-0.08164 -0.294685,-0.172317 -0.385357,-0.199511 -0.231214,-0.06348 -0.584836,-0.05439 -0.793383,0.01817 z" id="path2991" />
    <g id="g983" transform="matrix(0.03113296,0,0,0.03113296,24.118477,15.388702)">
      <path d="m 248.082,262.307 c 7.854,0 14.223,-6.369 14.223,-14.225 V 18.812 c 0,-7.857 -6.368,-14.224 -14.223,-14.224 H 18.812 c -7.857,0 -14.224,6.367 -14.224,14.224 v 229.27 c 0,7.855 6.366,14.225 14.224,14.225 z" fill="#3c5a99" id="Blue_1_" style="fill:#4d4d4d;fill-opacity:1" />
      <path d="m 182.409,262.307 v -99.803 h 33.499 l 5.016,-38.895 H 182.409 V 98.777 c 0,-11.261 3.127,-18.935 19.275,-18.935 L 222.28,79.833 V 45.045 c -3.562,-0.474 -15.788,-1.533 -30.012,-1.533 -29.695,0 -50.025,18.126 -50.025,51.413 v 28.684 h -33.585 v 38.895 h 33.585 v 99.803 z" fill="#ffffff" id="f" />
    </g>
    <g id="g1032" transform="matrix(0.4002388,0,0,0.4002388,43.41535,-14.151684)">
      <path d="m -26.702486,75.545405 c 0,-0.797911 0.663237,-1.445136 1.48142,-1.445136 h 17.0839284 c 0.8181557,0 1.4814195,0.647225 1.4814195,1.445136 v 17.283676 c 0,0.798181 -0.6632638,1.445136 -1.4814195,1.445136 H -25.221066 c -0.818183,0 -1.48142,-0.646955 -1.48142,-1.445136 z" style="fill:#4d4d4d;fill-opacity:1;fill-rule:nonzero;stroke:none;stroke-width:0.269565" id="path14" />
      <path d="m -20.62569,90.987954 v -9.109667 h -3.027885 v 9.109667 z m -1.513956,-10.353438 c 1.055885,0 1.713083,-0.699521 1.713083,-1.573719 -0.01968,-0.893876 -0.657198,-1.573988 -1.693054,-1.573988 -1.035748,0 -1.712949,0.680112 -1.712949,1.573988 0,0.874198 0.657064,1.573719 1.673188,1.573719 h 0.01968 z" style="fill:#ffffff;fill-opacity:1;fill-rule:evenodd;stroke:none;stroke-width:0.269565" id="path28" />
      <path d="m -18.950265,90.987954 h 3.027858 v -5.087223 c 0,-0.272261 0.01968,-0.544251 0.09963,-0.738877 0.218887,-0.543982 0.717096,-1.107372 1.553555,-1.107372 1.095646,0 1.533931,0.835381 1.533931,2.060013 v 4.873459 h 3.0276149 V 85.7646 c 0,-2.798081 -1.4937929,-4.100078 -3.4859019,-4.100078 -1.633454,0 -2.35055,0.913016 -2.748966,1.534901 h 0.02022 v -1.321136 h -3.027858 c 0.03973,0.854789 0,9.109667 0,9.109667 z" style="fill:#ffffff;fill-opacity:1;fill-rule:evenodd;stroke:none;stroke-width:0.269565" id="path30" />
    </g>
    <path id="path1046" style="fill:#4d4d4d;fill-opacity:1;stroke-width:0.0744426" d="m 42.883543,16.778855 c -0.158685,-5.7e-4 -0.283625,0.008 -0.428048,0.11168 -0.116822,0.0836 -0.151268,0.36906 0.03722,0.51644 l 2.349605,1.83782 c 0.09545,0.0746 0.220035,0.11166 0.344299,0.11166 0.124264,0 0.248853,-0.037 0.344298,-0.11166 l 2.349605,-1.83782 c 0.188489,-0.14738 0.154045,-0.43287 0.03722,-0.51644 -0.144423,-0.10333 -0.26943,-0.11632 -0.428048,-0.11168 -1.609797,0.0472 -2.922675,0.008 -4.606154,0 z m 5.797242,0.95381 -3.019591,2.36356 c -0.264835,0.20709 -0.691292,0.20709 -0.956127,0 l -3.014938,-2.35658 c -0.282786,0.0518 -0.495511,0.29963 -0.495511,0.59788 v 3.36388 c 0,0.33618 0.270988,0.60717 0.607175,0.60717 h 6.809201 c 0.336188,0 0.607175,-0.27099 0.607175,-0.60717 v -3.36388 c 0,-0.31282 -0.233982,-0.57076 -0.537384,-0.60486 z" />
  </g>
</svg>
